<svg width="484" height="398" viewBox="0 0 484 398" fill="none" xmlns="http://www.w3.org/2000/svg">
<path d="M425.397 66.2155H355.488V58.9339C355.488 26.4024 329.446 0 297.359 0H186.179C154.079 0 128.051 26.4024 128.051 58.9339V66.2155H58.1285C26.0286 66.2155 0 92.6047 0 125.149V339.066C0 371.598 26.0286 398 58.1285 398H425.423C457.523 398 483.551 371.598 483.551 339.066V125.149C483.526 92.5916 457.497 66.2155 425.397 66.2155ZM241.75 336.866C181.193 336.866 131.952 286.942 131.952 225.546C131.952 164.164 181.193 114.227 241.75 114.227C302.307 114.227 351.548 164.15 351.548 225.546C351.548 286.942 302.294 336.866 241.75 336.866ZM299.878 225.546C299.878 258.012 273.785 284.48 241.75 284.48C209.715 284.48 183.621 258.012 183.621 225.546C183.621 193.067 209.715 166.613 241.75 166.613C273.785 166.613 299.878 193.067 299.878 225.546Z" fill="#458BAA"/>
</svg>
