<svg width="21" height="15" viewBox="0 0 21 15" fill="none" xmlns="http://www.w3.org/2000/svg">
<path d="M18.4893 0.480225H2.00488C1.03367 0.480225 0.24707 1.27171 0.24707 2.23804V12.7849C0.24707 13.757 1.03945 14.5427 2.00488 14.5427H18.4893C19.4523 14.5427 20.2471 13.7603 20.2471 12.7849V2.23804C20.2471 1.27343 19.4636 0.480225 18.4893 0.480225ZM18.2431 1.6521C17.8839 2.00933 11.7034 8.1573 11.49 8.36956C11.158 8.70159 10.7166 8.8844 10.2471 8.8844C9.77754 8.8844 9.33613 8.70155 9.00301 8.36847C8.85949 8.22569 2.74719 2.14562 2.25105 1.6521H18.2431ZM1.41895 12.5464V2.47729L6.48293 7.5146L1.41895 12.5464ZM2.2518 13.3708L7.31379 8.34104L8.17547 9.19819C8.72883 9.75155 9.46453 10.0563 10.2471 10.0563C11.0296 10.0563 11.7653 9.75155 12.3176 9.19929L13.1804 8.34104L18.2423 13.3708H2.2518ZM19.0752 12.5464L14.0112 7.5146L19.0752 2.47729V12.5464Z" fill="#FEA670"/>
</svg>
