<svg width="40" height="40" viewBox="0 0 40 40" fill="none" xmlns="http://www.w3.org/2000/svg">
<circle cx="20" cy="20" r="20" fill="url(#paint0_linear)"/>
<path d="M30.0833 20.8609H9.91667C9.41066 20.8609 9 20.4503 9 19.9443C9 19.4383 9.41066 19.0276 9.91667 19.0276H30.0833C30.5893 19.0276 31 19.4383 31 19.9443C31 20.4503 30.5893 20.8609 30.0833 20.8609Z" fill="#00020E"/>
<path d="M30.0833 13.8333H9.91667C9.41066 13.8333 9 13.4227 9 12.9167C9 12.4107 9.41066 12 9.91667 12H30.0833C30.5893 12 31 12.4107 31 12.9167C31 13.4227 30.5893 13.8333 30.0833 13.8333Z" fill="#00020E"/>
<path d="M30.0833 27.8888H9.91667C9.41066 27.8888 9 27.4781 9 26.9721C9 26.4661 9.41066 26.0554 9.91667 26.0554H30.0833C30.5893 26.0554 31 26.4661 31 26.9721C31 27.4781 30.5893 27.8888 30.0833 27.8888Z" fill="#00020E"/>
<defs>
<linearGradient id="paint0_linear" x1="20" y1="0" x2="20" y2="40" gradientUnits="userSpaceOnUse">
<stop stop-color="#90E1FB"/>
<stop offset="1" stop-color="#66BFFE"/>
</linearGradient>
</defs>
</svg>
