<svg width="152" height="49" viewBox="0 0 152 49" fill="none" xmlns="http://www.w3.org/2000/svg">
<path d="M7.38 29.233C5.19333 29.233 3.41667 28.8503 2.05 28.085C0.68333 27.3197 0 26.24 0 24.846C0 24.0533 0.23233 23.411 0.697 22.919C1.189 22.427 1.81767 22.181 2.583 22.181C3.02033 22.181 3.403 22.304 3.731 22.55C4.08633 22.796 4.264 22.9873 4.264 23.124C4.264 23.1513 4.1 23.329 3.772 23.657C3.47133 23.985 3.321 24.4497 3.321 25.051C3.321 25.871 3.69 26.527 4.428 27.019C5.19333 27.4837 6.28667 27.716 7.708 27.716C8.9927 27.716 9.9903 27.4427 10.701 26.896C11.439 26.322 11.808 25.5293 11.808 24.518C11.808 23.8347 11.603 23.2743 11.193 22.837C10.783 22.3997 10.2637 22.058 9.635 21.812C9.0337 21.566 8.18633 21.279 7.093 20.951C5.75367 20.5683 4.66033 20.1857 3.813 19.803C2.96567 19.4203 2.24133 18.8463 1.64 18.081C1.03867 17.3157 0.738 16.318 0.738 15.088C0.738 13.94 1.09333 12.956 1.804 12.136C2.51467 11.316 3.43033 10.701 4.551 10.291C5.699 9.881 6.90167 9.676 8.159 9.676C9.7717 9.676 11.1657 10.0177 12.341 10.701C13.5437 11.3843 14.145 12.341 14.145 13.571C14.145 14.309 13.9127 14.9377 13.448 15.457C13.0107 15.9763 12.423 16.236 11.685 16.236C11.2477 16.236 10.8513 16.113 10.496 15.867C10.168 15.621 10.004 15.4297 10.004 15.293C10.004 15.2657 10.1133 15.1563 10.332 14.965C10.5507 14.7737 10.742 14.555 10.906 14.309C11.0973 14.0357 11.193 13.7213 11.193 13.366C11.1383 12.628 10.7693 12.054 10.086 11.644C9.4027 11.234 8.5963 11.029 7.667 11.029C6.62833 11.029 5.71267 11.275 4.92 11.767C4.15467 12.2317 3.772 12.8877 3.772 13.735C3.772 14.5003 3.936 15.1153 4.264 15.58C4.592 16.0173 5.084 16.3727 5.74 16.646C6.396 16.9193 7.43467 17.2883 8.856 17.753C10.3047 18.2177 11.439 18.655 12.259 19.065C13.079 19.4477 13.7213 19.9807 14.186 20.664C14.678 21.32 14.924 22.1947 14.924 23.288C14.924 24.4087 14.596 25.4337 13.94 26.363C13.284 27.265 12.382 27.9757 11.234 28.495C10.086 28.987 8.8013 29.233 7.38 29.233ZM23.5077 29.233C21.8677 29.233 20.5421 28.7683 19.5307 27.839C18.5194 26.9097 18.0137 25.748 18.0137 24.354C18.0137 22.632 18.5877 21.3473 19.7357 20.5C20.8837 19.6253 22.2504 19.065 23.8357 18.819C25.4211 18.5457 27.4711 18.3407 29.9857 18.204V14.965C29.9857 13.6257 29.6441 12.6143 28.9607 11.931C28.3047 11.2203 27.2387 10.865 25.7627 10.865C24.9154 10.865 24.1774 11.1247 23.5487 11.644C22.9201 12.1633 22.6057 12.8603 22.6057 13.735C22.6057 14.1723 22.7014 14.5413 22.8927 14.842C23.1114 15.1153 23.3301 15.3477 23.5487 15.539C23.7947 15.7303 23.9177 15.8397 23.9177 15.867C23.9177 16.031 23.7401 16.2497 23.3847 16.523C23.0567 16.769 22.6467 16.892 22.1547 16.892C21.3347 16.892 20.6787 16.5913 20.1867 15.99C19.7221 15.3887 19.4897 14.678 19.4897 13.858C19.4897 12.4367 20.1184 11.3843 21.3757 10.701C22.6604 10.0177 24.2047 9.676 26.0087 9.676C28.2501 9.676 30.0677 10.0997 31.4617 10.947C32.8831 11.7943 33.5937 13.366 33.5937 15.662V25.215C33.6211 25.789 33.7987 26.3357 34.1267 26.855C34.4547 27.3743 34.9877 27.634 35.7257 27.634C35.9444 27.634 36.0947 27.675 36.1767 27.757C36.2861 27.839 36.3407 28.0167 36.3407 28.29C36.3407 28.618 36.0811 28.8503 35.5617 28.987C35.0697 29.151 34.5777 29.233 34.0857 29.233C33.0471 29.233 32.1314 28.9323 31.3387 28.331C30.5461 27.7297 30.0951 26.9233 29.9857 25.912C29.4117 26.978 28.5234 27.798 27.3207 28.372C26.1454 28.946 24.8744 29.233 23.5077 29.233ZM24.8197 27.019C25.7491 27.019 26.6101 26.7867 27.4027 26.322C28.1954 25.8573 28.8241 25.2287 29.2887 24.436C29.7534 23.616 29.9857 22.714 29.9857 21.73V19.393C27.1157 19.6117 25.0931 20.0763 23.9177 20.787C22.7424 21.4977 22.1547 22.6457 22.1547 24.231C22.1547 26.0897 23.0431 27.019 24.8197 27.019ZM38.9686 28.864C38.7772 28.864 38.6132 28.782 38.4766 28.618C38.3672 28.454 38.3126 28.2627 38.3126 28.044C38.3399 27.6887 38.4219 27.4837 38.5586 27.429C38.6952 27.347 38.9412 27.306 39.2966 27.306C40.0072 27.306 40.5129 27.183 40.8136 26.937C41.1142 26.691 41.2782 26.404 41.3056 26.076C41.3602 25.748 41.3876 25.2287 41.3876 24.518V15.129C41.3876 14.4183 41.3602 13.899 41.3056 13.571C41.2782 13.243 41.1142 12.956 40.8136 12.71C40.5129 12.464 40.0072 12.341 39.2966 12.341C38.9686 12.341 38.7226 12.3 38.5586 12.218C38.3946 12.1087 38.3126 11.8763 38.3126 11.521C38.3126 11.357 38.3672 11.2067 38.4766 11.07C38.5859 10.906 38.7499 10.8103 38.9686 10.783C40.7452 10.5097 42.2076 10.1543 43.3556 9.717C43.8202 9.5803 44.1346 9.4983 44.2986 9.471H44.4216C44.8589 9.471 45.0776 9.7307 45.0776 10.25V12.833H45.2006C45.9932 12.095 46.6356 11.5347 47.1276 11.152C47.6196 10.742 48.2482 10.4003 49.0136 10.127C49.8062 9.8263 50.7356 9.676 51.8016 9.676C53.6602 9.676 55.1362 10.2363 56.2296 11.357C57.3229 12.4777 57.8696 13.9537 57.8696 15.785V24.518C57.8696 25.2287 57.8969 25.748 57.9516 26.076C58.0062 26.404 58.1839 26.691 58.4846 26.937C58.7852 27.183 59.2909 27.306 60.0016 27.306H60.2476C60.4662 27.306 60.6302 27.347 60.7396 27.429C60.8489 27.511 60.9172 27.716 60.9446 28.044C60.9446 28.2627 60.8762 28.454 60.7396 28.618C60.6302 28.782 60.4799 28.864 60.2886 28.864C58.7032 28.782 57.2682 28.741 55.9836 28.741C54.7536 28.741 53.3322 28.782 51.7196 28.864C51.5282 28.864 51.3642 28.782 51.2276 28.618C51.1182 28.454 51.0636 28.2627 51.0636 28.044C51.0909 27.6887 51.1592 27.4837 51.2686 27.429C51.4052 27.347 51.6512 27.306 52.0066 27.306C52.7172 27.306 53.2229 27.183 53.5236 26.937C53.8242 26.691 54.0019 26.404 54.0566 26.076C54.1112 25.748 54.1386 25.2287 54.1386 24.518V15.826C54.1386 14.5687 53.7422 13.612 52.9496 12.956C52.1569 12.2727 51.2412 11.931 50.2026 11.931C48.9452 11.931 47.8656 12.2453 46.9636 12.874C46.0616 13.4753 45.4466 14.104 45.1186 14.76V24.518C45.1186 25.2287 45.1459 25.748 45.2006 26.076C45.2552 26.404 45.4329 26.691 45.7336 26.937C46.0342 27.183 46.5399 27.306 47.2506 27.306H47.4966C47.7152 27.306 47.8792 27.347 47.9886 27.429C48.0979 27.511 48.1662 27.716 48.1936 28.044C48.1936 28.2627 48.1389 28.454 48.0296 28.618C47.9202 28.782 47.7562 28.864 47.5376 28.864C45.9522 28.782 44.5172 28.741 43.2326 28.741C42.0026 28.741 40.5812 28.782 38.9686 28.864ZM71.9854 37.146C71.7394 37.146 71.5344 36.9547 71.3704 36.572C71.3431 36.49 71.3294 36.3533 71.3294 36.162C71.3294 35.8887 71.4524 35.6973 71.6984 35.588C72.9831 35.0413 73.9261 34.2487 74.5274 33.21C75.1561 32.1987 75.5661 30.9413 75.7574 29.438C75.9488 27.9347 76.0444 25.912 76.0444 23.37V15.129C76.0444 14.4183 76.0171 13.899 75.9624 13.571C75.9351 13.243 75.7711 12.956 75.4704 12.71C75.1698 12.464 74.6641 12.341 73.9534 12.341C73.6254 12.341 73.3794 12.3 73.2154 12.218C73.0514 12.1087 72.9694 11.8763 72.9694 11.521C72.9694 11.357 73.0241 11.2067 73.1334 11.07C73.2428 10.906 73.4068 10.8103 73.6254 10.783C75.3474 10.537 76.8234 10.1817 78.0534 9.717C78.4361 9.5803 78.7504 9.4983 78.9964 9.471H79.1194C79.5568 9.471 79.7754 9.7307 79.7754 10.25V24.682C79.7754 28.044 79.1878 30.791 78.0124 32.923C76.8644 35.0823 74.9238 36.49 72.1904 37.146H71.9854ZM77.6024 4.92C76.8371 4.92 76.1948 4.6877 75.6754 4.223C75.1561 3.731 74.8964 3.1297 74.8964 2.419C74.8964 1.7903 75.2108 1.23 75.8394 0.738C76.4681 0.246 77.1788 0 77.9714 0C78.6548 0 79.2151 0.246 79.6524 0.738C80.0898 1.20267 80.3084 1.804 80.3084 2.542C80.3084 3.198 80.0488 3.7583 79.5294 4.223C79.0101 4.6877 78.3678 4.92 77.6024 4.92ZM92.7644 29.233C90.9058 29.233 89.4298 28.6727 88.3364 27.552C87.2431 26.4313 86.6964 24.9553 86.6964 23.124V15.539C86.6964 14.8283 86.6691 14.309 86.6144 13.981C86.5871 13.653 86.4231 13.366 86.1224 13.12C85.8218 12.874 85.3161 12.751 84.6054 12.751C84.2774 12.751 84.0314 12.71 83.8674 12.628C83.7034 12.5187 83.6214 12.2863 83.6214 11.931C83.6214 11.767 83.6761 11.6167 83.7854 11.48C83.8948 11.316 84.0588 11.2203 84.2774 11.193C85.9994 10.947 87.4754 10.5917 88.7054 10.127C89.0881 9.9903 89.4024 9.9083 89.6484 9.881H89.7714C90.2088 9.881 90.4274 10.1407 90.4274 10.66V23.083C90.4274 24.3403 90.8238 25.3107 91.6164 25.994C92.4091 26.65 93.3248 26.978 94.3634 26.978C95.6481 26.978 96.7414 26.6637 97.6434 26.035C98.545 25.4063 99.147 24.7777 99.447 24.149V15.539C99.447 14.8283 99.42 14.309 99.365 13.981C99.338 13.653 99.174 13.366 98.873 13.12C98.573 12.874 98.0671 12.751 97.3564 12.751C97.0284 12.751 96.7824 12.71 96.6184 12.628C96.4544 12.5187 96.3724 12.2863 96.3724 11.931C96.3724 11.767 96.4271 11.6167 96.5364 11.48C96.6458 11.316 96.8098 11.2203 97.0284 11.193C98.75 10.947 100.226 10.5917 101.456 10.127C101.839 9.9903 102.153 9.9083 102.399 9.881H102.522C102.96 9.881 103.178 10.1407 103.178 10.66V24.846C103.178 26.4587 104.258 27.265 106.417 27.265C106.882 27.265 107.114 27.5247 107.114 28.044C107.114 28.4267 106.882 28.659 106.417 28.741L99.816 29.192C99.625 29.192 99.516 29.1237 99.488 28.987C99.461 28.8777 99.447 28.6727 99.447 28.372V26.076H99.365C98.573 26.814 97.9304 27.388 97.4384 27.798C96.9464 28.1807 96.3041 28.5087 95.5114 28.782C94.7461 29.0827 93.8304 29.233 92.7644 29.233ZM113.836 29.233C112.196 29.233 110.87 28.7683 109.859 27.839C108.848 26.9097 108.342 25.748 108.342 24.354C108.342 22.632 108.916 21.3473 110.064 20.5C111.212 19.6253 112.579 19.065 114.164 18.819C115.749 18.5457 117.799 18.3407 120.314 18.204V14.965C120.314 13.6257 119.972 12.6143 119.289 11.931C118.633 11.2203 117.567 10.865 116.091 10.865C115.244 10.865 114.506 11.1247 113.877 11.644C113.248 12.1633 112.934 12.8603 112.934 13.735C112.934 14.1723 113.03 14.5413 113.221 14.842C113.44 15.1153 113.658 15.3477 113.877 15.539C114.123 15.7303 114.246 15.8397 114.246 15.867C114.246 16.031 114.068 16.2497 113.713 16.523C113.385 16.769 112.975 16.892 112.483 16.892C111.663 16.892 111.007 16.5913 110.515 15.99C110.05 15.3887 109.818 14.678 109.818 13.858C109.818 12.4367 110.447 11.3843 111.704 10.701C112.989 10.0177 114.533 9.676 116.337 9.676C118.578 9.676 120.396 10.0997 121.79 10.947C123.211 11.7943 123.922 13.366 123.922 15.662V25.215C123.949 25.789 124.127 26.3357 124.455 26.855C124.783 27.3743 125.316 27.634 126.054 27.634C126.273 27.634 126.423 27.675 126.505 27.757C126.614 27.839 126.669 28.0167 126.669 28.29C126.669 28.618 126.409 28.8503 125.89 28.987C125.398 29.151 124.906 29.233 124.414 29.233C123.375 29.233 122.46 28.9323 121.667 28.331C120.874 27.7297 120.423 26.9233 120.314 25.912C119.74 26.978 118.852 27.798 117.649 28.372C116.474 28.946 115.203 29.233 113.836 29.233ZM115.148 27.019C116.077 27.019 116.938 26.7867 117.731 26.322C118.524 25.8573 119.152 25.2287 119.617 24.436C120.082 23.616 120.314 22.714 120.314 21.73V19.393C117.444 19.6117 115.421 20.0763 114.246 20.787C113.071 21.4977 112.483 22.6457 112.483 24.231C112.483 26.0897 113.371 27.019 115.148 27.019ZM129.297 28.864C129.105 28.864 128.941 28.782 128.805 28.618C128.695 28.454 128.641 28.2627 128.641 28.044C128.668 27.6887 128.75 27.4837 128.887 27.429C129.023 27.347 129.269 27.306 129.625 27.306C130.335 27.306 130.841 27.183 131.142 26.937C131.442 26.691 131.606 26.404 131.634 26.076C131.688 25.748 131.716 25.2287 131.716 24.518V15.129C131.716 14.4183 131.688 13.899 131.634 13.571C131.606 13.243 131.442 12.956 131.142 12.71C130.841 12.464 130.335 12.341 129.625 12.341C129.297 12.341 129.051 12.3 128.887 12.218C128.723 12.1087 128.641 11.8763 128.641 11.521C128.641 11.357 128.695 11.2067 128.805 11.07C128.914 10.906 129.078 10.8103 129.297 10.783C131.073 10.5097 132.536 10.1543 133.684 9.717C134.148 9.5803 134.463 9.4983 134.627 9.471H134.75C135.187 9.471 135.406 9.7307 135.406 10.25V12.833H135.529C136.321 12.095 136.964 11.5347 137.456 11.152C137.948 10.742 138.576 10.4003 139.342 10.127C140.134 9.8263 141.064 9.676 142.13 9.676C143.988 9.676 145.464 10.2363 146.558 11.357C147.651 12.4777 148.198 13.9537 148.198 15.785V24.518C148.198 25.2287 148.225 25.748 148.28 26.076C148.334 26.404 148.512 26.691 148.813 26.937C149.113 27.183 149.619 27.306 150.33 27.306H150.576C150.794 27.306 150.958 27.347 151.068 27.429C151.177 27.511 151.245 27.716 151.273 28.044C151.273 28.2627 151.204 28.454 151.068 28.618C150.958 28.782 150.808 28.864 150.617 28.864C149.031 28.782 147.596 28.741 146.312 28.741C145.082 28.741 143.66 28.782 142.048 28.864C141.856 28.864 141.692 28.782 141.556 28.618C141.446 28.454 141.392 28.2627 141.392 28.044C141.419 27.6887 141.487 27.4837 141.597 27.429C141.733 27.347 141.979 27.306 142.335 27.306C143.045 27.306 143.551 27.183 143.852 26.937C144.152 26.691 144.33 26.404 144.385 26.076C144.439 25.748 144.467 25.2287 144.467 24.518V15.826C144.467 14.5687 144.07 13.612 143.278 12.956C142.485 12.2727 141.569 11.931 140.531 11.931C139.273 11.931 138.194 12.2453 137.292 12.874C136.39 13.4753 135.775 14.104 135.447 14.76V24.518C135.447 25.2287 135.474 25.748 135.529 26.076C135.583 26.404 135.761 26.691 136.062 26.937C136.362 27.183 136.868 27.306 137.579 27.306H137.825C138.043 27.306 138.207 27.347 138.317 27.429C138.426 27.511 138.494 27.716 138.522 28.044C138.522 28.2627 138.467 28.454 138.358 28.618C138.248 28.782 138.084 28.864 137.866 28.864C136.28 28.782 134.845 28.741 133.561 28.741C132.331 28.741 130.909 28.782 129.297 28.864Z" fill="#F9F9F9"/>
<path d="M87.2812 38.5171V48.4011H88.1633V44.3691H88.1913C88.2846 44.6304 88.4153 44.8591 88.5833 45.0551C88.7606 45.2511 88.9613 45.4144 89.1853 45.5451C89.4093 45.6758 89.652 45.7738 89.9133 45.8391C90.1746 45.9044 90.436 45.9371 90.6973 45.9371C91.248 45.9371 91.724 45.8391 92.1253 45.6431C92.536 45.4378 92.8766 45.1624 93.1473 44.8171C93.418 44.4624 93.6186 44.0564 93.7493 43.5991C93.88 43.1324 93.9453 42.6424 93.9453 42.1291C93.9453 41.6158 93.88 41.1304 93.7493 40.6731C93.6186 40.2064 93.418 39.8004 93.1473 39.4551C92.8766 39.1004 92.536 38.8204 92.1253 38.6151C91.724 38.4098 91.248 38.3071 90.6973 38.3071C90.1093 38.3071 89.582 38.4471 89.1153 38.7271C88.658 38.9978 88.3266 39.3851 88.1213 39.8891H88.0933V38.5171H87.2812ZM93.0633 42.1291C93.0633 42.5024 93.0166 42.8758 92.9233 43.2491C92.8393 43.6131 92.6993 43.9398 92.5033 44.2291C92.3166 44.5184 92.074 44.7564 91.7753 44.9431C91.4766 45.1204 91.1173 45.2091 90.6973 45.2091C90.2306 45.2091 89.834 45.1204 89.5073 44.9431C89.19 44.7564 88.9286 44.5184 88.7233 44.2291C88.5273 43.9398 88.3826 43.6131 88.2893 43.2491C88.2053 42.8758 88.1633 42.5024 88.1633 42.1291C88.1633 41.7184 88.2006 41.3264 88.2753 40.9531C88.3593 40.5798 88.4993 40.2531 88.6953 39.9731C88.8913 39.6931 89.1526 39.4691 89.4793 39.3011C89.806 39.1331 90.212 39.0491 90.6973 39.0491C91.1173 39.0491 91.4766 39.1424 91.7753 39.3291C92.074 39.5064 92.3166 39.7398 92.5033 40.0291C92.6993 40.3184 92.8393 40.6498 92.9233 41.0231C93.0166 41.3871 93.0633 41.7558 93.0633 42.1291ZM98.3724 39.0491C98.7923 39.0491 99.1613 39.1378 99.4783 39.3151C99.7953 39.4924 100.057 39.7258 100.262 40.0151C100.477 40.3044 100.635 40.6358 100.738 41.0091C100.85 41.3731 100.906 41.7464 100.906 42.1291C100.906 42.5118 100.85 42.8898 100.738 43.2631C100.635 43.6271 100.477 43.9538 100.262 44.2431C100.057 44.5324 99.7953 44.7658 99.4783 44.9431C99.1613 45.1204 98.7923 45.2091 98.3724 45.2091C97.9524 45.2091 97.5837 45.1204 97.2664 44.9431C96.949 44.7658 96.683 44.5324 96.4684 44.2431C96.263 43.9538 96.1044 43.6271 95.9924 43.2631C95.8897 42.8898 95.8384 42.5118 95.8384 42.1291C95.8384 41.7464 95.8897 41.3731 95.9924 41.0091C96.1044 40.6358 96.263 40.3044 96.4684 40.0151C96.683 39.7258 96.949 39.4924 97.2664 39.3151C97.5837 39.1378 97.9524 39.0491 98.3724 39.0491ZM98.3724 38.3071C97.8217 38.3071 97.3317 38.4098 96.9024 38.6151C96.4824 38.8204 96.1277 39.0958 95.8384 39.4411C95.549 39.7864 95.3297 40.1924 95.1804 40.6591C95.031 41.1164 94.9564 41.6064 94.9564 42.1291C94.9564 42.6518 95.031 43.1464 95.1804 43.6131C95.3297 44.0704 95.549 44.4718 95.8384 44.8171C96.1277 45.1624 96.4824 45.4378 96.9024 45.6431C97.3317 45.8391 97.8217 45.9371 98.3724 45.9371C98.9233 45.9371 99.4083 45.8391 99.8283 45.6431C100.257 45.4378 100.617 45.1624 100.906 44.8171C101.195 44.4718 101.415 44.0704 101.564 43.6131C101.713 43.1464 101.788 42.6518 101.788 42.1291C101.788 41.6064 101.713 41.1164 101.564 40.6591C101.415 40.1924 101.195 39.7864 100.906 39.4411C100.617 39.0958 100.257 38.8204 99.8283 38.6151C99.4083 38.4098 98.9233 38.3071 98.3724 38.3071ZM106.151 39.0491C106.571 39.0491 106.94 39.1378 107.257 39.3151C107.575 39.4924 107.836 39.7258 108.041 40.0151C108.256 40.3044 108.415 40.6358 108.517 41.0091C108.629 41.3731 108.685 41.7464 108.685 42.1291C108.685 42.5118 108.629 42.8898 108.517 43.2631C108.415 43.6271 108.256 43.9538 108.041 44.2431C107.836 44.5324 107.575 44.7658 107.257 44.9431C106.94 45.1204 106.571 45.2091 106.151 45.2091C105.731 45.2091 105.363 45.1204 105.045 44.9431C104.728 44.7658 104.462 44.5324 104.247 44.2431C104.042 43.9538 103.883 43.6271 103.771 43.2631C103.669 42.8898 103.617 42.5118 103.617 42.1291C103.617 41.7464 103.669 41.3731 103.771 41.0091C103.883 40.6358 104.042 40.3044 104.247 40.0151C104.462 39.7258 104.728 39.4924 105.045 39.3151C105.363 39.1378 105.731 39.0491 106.151 39.0491ZM106.151 38.3071C105.601 38.3071 105.111 38.4098 104.681 38.6151C104.261 38.8204 103.907 39.0958 103.617 39.4411C103.328 39.7864 103.109 40.1924 102.959 40.6591C102.81 41.1164 102.735 41.6064 102.735 42.1291C102.735 42.6518 102.81 43.1464 102.959 43.6131C103.109 44.0704 103.328 44.4718 103.617 44.8171C103.907 45.1624 104.261 45.4378 104.681 45.6431C105.111 45.8391 105.601 45.9371 106.151 45.9371C106.702 45.9371 107.187 45.8391 107.607 45.6431C108.037 45.4378 108.396 45.1624 108.685 44.8171C108.975 44.4718 109.194 44.0704 109.343 43.6131C109.493 43.1464 109.567 42.6518 109.567 42.1291C109.567 41.6064 109.493 41.1164 109.343 40.6591C109.194 40.1924 108.975 39.7864 108.685 39.4411C108.396 39.0958 108.037 38.8204 107.607 38.6151C107.187 38.4098 106.702 38.3071 106.151 38.3071ZM110.893 35.7451V45.7411H111.775V35.7451H110.893ZM117.789 40.6311H118.671C118.652 40.2391 118.573 39.8984 118.433 39.6091C118.293 39.3198 118.101 39.0771 117.859 38.8811C117.625 38.6851 117.35 38.5404 117.033 38.4471C116.725 38.3538 116.389 38.3071 116.025 38.3071C115.707 38.3071 115.385 38.3444 115.059 38.4191C114.741 38.4938 114.452 38.6104 114.191 38.7691C113.929 38.9278 113.715 39.1378 113.547 39.3991C113.388 39.6604 113.309 39.9731 113.309 40.3371C113.309 40.6451 113.36 40.9064 113.463 41.1211C113.565 41.3264 113.705 41.5038 113.883 41.6531C114.069 41.7931 114.284 41.9144 114.527 42.0171C114.769 42.1104 115.035 42.1944 115.325 42.2691L116.459 42.5211C116.655 42.5678 116.846 42.6238 117.033 42.6891C117.229 42.7544 117.401 42.8384 117.551 42.9411C117.7 43.0344 117.817 43.1558 117.901 43.3051C117.994 43.4451 118.041 43.6224 118.041 43.8371C118.041 44.0891 117.975 44.3038 117.845 44.4811C117.723 44.6491 117.565 44.7891 117.369 44.9011C117.173 45.0131 116.958 45.0924 116.725 45.1391C116.501 45.1858 116.281 45.2091 116.067 45.2091C115.479 45.2091 114.984 45.0598 114.583 44.7611C114.191 44.4531 113.976 44.0004 113.939 43.4031H113.057C113.131 44.2898 113.43 44.9338 113.953 45.3351C114.485 45.7364 115.175 45.9371 116.025 45.9371C116.361 45.9371 116.701 45.8998 117.047 45.8251C117.392 45.7504 117.7 45.6291 117.971 45.4611C118.251 45.2838 118.479 45.0598 118.657 44.7891C118.834 44.5091 118.923 44.1731 118.923 43.7811C118.923 43.4638 118.862 43.1884 118.741 42.9551C118.619 42.7218 118.461 42.5258 118.265 42.3671C118.078 42.2084 117.859 42.0824 117.607 41.9891C117.364 41.8864 117.117 41.8164 116.865 41.7791L115.689 41.5131C115.539 41.4758 115.376 41.4291 115.199 41.3731C115.021 41.3078 114.858 41.2284 114.709 41.1351C114.559 41.0418 114.433 40.9298 114.331 40.7991C114.237 40.6591 114.191 40.4911 114.191 40.2951C114.191 40.0618 114.242 39.8658 114.345 39.7071C114.447 39.5484 114.583 39.4224 114.751 39.3291C114.919 39.2264 115.101 39.1564 115.297 39.1191C115.502 39.0724 115.703 39.0491 115.899 39.0491C116.151 39.0491 116.389 39.0818 116.613 39.1471C116.837 39.2031 117.033 39.2964 117.201 39.4271C117.378 39.5578 117.518 39.7258 117.621 39.9311C117.723 40.1271 117.779 40.3604 117.789 40.6311ZM120.721 37.8311V38.4611H123.311V45.7411H124.193V35.9411H123.479C123.414 36.3891 123.302 36.7391 123.143 36.9911C122.994 37.2338 122.802 37.4158 122.569 37.5371C122.345 37.6584 122.074 37.7378 121.757 37.7751C121.449 37.8031 121.104 37.8218 120.721 37.8311ZM128.738 43.3891H127.856C127.959 44.2571 128.267 44.9011 128.78 45.3211C129.294 45.7318 129.989 45.9371 130.866 45.9371C131.398 45.9371 131.856 45.8438 132.238 45.6571C132.621 45.4704 132.938 45.2324 133.19 44.9431C133.452 44.6444 133.657 44.3131 133.806 43.9491C133.965 43.5758 134.086 43.2118 134.17 42.8571C134.254 42.4931 134.306 42.1524 134.324 41.8351C134.352 41.5178 134.366 41.2611 134.366 41.0651C134.366 40.1131 134.296 39.3058 134.156 38.6431C134.026 37.9804 133.82 37.4438 133.54 37.0331C133.26 36.6131 132.906 36.3144 132.476 36.1371C132.047 35.9504 131.534 35.8571 130.936 35.8571C130.451 35.8571 130.003 35.9411 129.592 36.1091C129.191 36.2771 128.841 36.5104 128.542 36.8091C128.253 37.0984 128.024 37.4484 127.856 37.8591C127.698 38.2604 127.618 38.6991 127.618 39.1751C127.618 39.6511 127.693 40.0898 127.842 40.4911C128.001 40.8924 128.22 41.2378 128.5 41.5271C128.78 41.8164 129.121 42.0451 129.522 42.2131C129.924 42.3718 130.367 42.4511 130.852 42.4511C131.412 42.4511 131.926 42.3018 132.392 42.0031C132.868 41.7044 133.223 41.3124 133.456 40.8271H133.484C133.484 41.2751 133.452 41.7558 133.386 42.2691C133.321 42.7731 133.19 43.2444 132.994 43.6831C132.798 44.1218 132.523 44.4858 132.168 44.7751C131.823 45.0644 131.361 45.2091 130.782 45.2091C130.213 45.2091 129.746 45.0411 129.382 44.7051C129.028 44.3691 128.813 43.9304 128.738 43.3891ZM130.866 41.7091C130.493 41.7091 130.157 41.6438 129.858 41.5131C129.569 41.3731 129.322 41.1864 129.116 40.9531C128.92 40.7198 128.766 40.4444 128.654 40.1271C128.552 39.8098 128.5 39.4738 128.5 39.1191C128.5 38.7831 128.556 38.4611 128.668 38.1531C128.78 37.8451 128.939 37.5791 129.144 37.3551C129.359 37.1218 129.611 36.9398 129.9 36.8091C130.19 36.6691 130.507 36.5991 130.852 36.5991C131.282 36.5991 131.65 36.6644 131.958 36.7951C132.266 36.9258 132.518 37.1078 132.714 37.3411C132.92 37.5651 133.069 37.8311 133.162 38.1391C133.256 38.4378 133.302 38.7644 133.302 39.1191C133.302 39.4831 133.246 39.8238 133.134 40.1411C133.032 40.4491 132.873 40.7198 132.658 40.9531C132.453 41.1864 132.196 41.3731 131.888 41.5131C131.59 41.6438 131.249 41.7091 130.866 41.7091ZM136.307 42.9411H135.425C135.435 43.4078 135.523 43.8278 135.691 44.2011C135.859 44.5744 136.083 44.8918 136.363 45.1531C136.653 45.4051 136.989 45.6011 137.371 45.7411C137.763 45.8718 138.188 45.9371 138.645 45.9371C139.112 45.9371 139.551 45.8578 139.961 45.6991C140.381 45.5311 140.745 45.3024 141.053 45.0131C141.361 44.7144 141.604 44.3644 141.781 43.9631C141.959 43.5524 142.047 43.1091 142.047 42.6331C142.047 42.1384 141.968 41.6858 141.809 41.2751C141.66 40.8551 141.441 40.4958 141.151 40.1971C140.871 39.8984 140.526 39.6651 140.115 39.4971C139.714 39.3291 139.261 39.2451 138.757 39.2451C138.365 39.2451 137.983 39.3244 137.609 39.4831C137.236 39.6418 136.928 39.8658 136.685 40.1551L136.657 40.1271L137.287 36.8791H141.571V36.0671H136.671L135.719 41.1491H136.475C136.718 40.7758 137.031 40.4911 137.413 40.2951C137.796 40.0898 138.211 39.9871 138.659 39.9871C139.023 39.9871 139.359 40.0524 139.667 40.1831C139.975 40.3138 140.237 40.4958 140.451 40.7291C140.675 40.9531 140.848 41.2191 140.969 41.5271C141.1 41.8351 141.165 42.1711 141.165 42.5351C141.165 42.8898 141.109 43.2304 140.997 43.5571C140.885 43.8744 140.722 44.1591 140.507 44.4111C140.293 44.6538 140.036 44.8498 139.737 44.9991C139.439 45.1391 139.098 45.2091 138.715 45.2091C138.379 45.2091 138.067 45.1578 137.777 45.0551C137.488 44.9431 137.236 44.7891 137.021 44.5931C136.807 44.3878 136.634 44.1451 136.503 43.8651C136.382 43.5851 136.317 43.2771 136.307 42.9411ZM146.593 40.1271C146.331 40.1364 146.075 40.1084 145.823 40.0431C145.571 39.9778 145.347 39.8704 145.151 39.7211C144.955 39.5718 144.796 39.3804 144.675 39.1471C144.553 38.9138 144.493 38.6338 144.493 38.3071C144.493 38.0271 144.549 37.7798 144.661 37.5651C144.782 37.3504 144.941 37.1731 145.137 37.0331C145.333 36.8931 145.557 36.7858 145.809 36.7111C146.061 36.6364 146.322 36.5991 146.593 36.5991C146.891 36.5991 147.167 36.6364 147.419 36.7111C147.671 36.7858 147.89 36.8931 148.077 37.0331C148.263 37.1731 148.408 37.3504 148.511 37.5651C148.623 37.7798 148.679 38.0271 148.679 38.3071C148.679 38.6244 148.618 38.8998 148.497 39.1331C148.385 39.3664 148.231 39.5578 148.035 39.7071C147.848 39.8564 147.629 39.9684 147.377 40.0431C147.125 40.1084 146.863 40.1364 146.593 40.1271ZM149.561 38.3071C149.561 37.8871 149.472 37.5231 149.295 37.2151C149.127 36.9071 148.898 36.6551 148.609 36.4591C148.329 36.2538 148.011 36.1044 147.657 36.0111C147.302 35.9084 146.943 35.8571 146.579 35.8571C146.215 35.8571 145.855 35.9084 145.501 36.0111C145.146 36.1044 144.829 36.2538 144.549 36.4591C144.269 36.6551 144.04 36.9071 143.863 37.2151C143.695 37.5231 143.611 37.8871 143.611 38.3071C143.611 38.8484 143.746 39.3058 144.017 39.6791C144.297 40.0431 144.693 40.3044 145.207 40.4631V40.4911C144.591 40.6031 144.11 40.8878 143.765 41.3451C143.419 41.8024 143.237 42.3531 143.219 42.9971C143.219 43.4918 143.307 43.9258 143.485 44.2991C143.662 44.6631 143.905 44.9664 144.213 45.2091C144.521 45.4518 144.88 45.6338 145.291 45.7551C145.701 45.8764 146.135 45.9371 146.593 45.9371C147.059 45.9371 147.493 45.8764 147.895 45.7551C148.305 45.6338 148.665 45.4518 148.973 45.2091C149.281 44.9664 149.523 44.6631 149.701 44.2991C149.878 43.9258 149.967 43.4918 149.967 42.9971C149.967 42.3251 149.794 41.7744 149.449 41.3451C149.103 40.9064 148.609 40.6218 147.965 40.4911V40.4631C148.469 40.3138 148.861 40.0524 149.141 39.6791C149.421 39.2964 149.561 38.8391 149.561 38.3071ZM146.593 45.2091C146.247 45.2091 145.921 45.1624 145.613 45.0691C145.314 44.9758 145.053 44.8404 144.829 44.6631C144.605 44.4764 144.427 44.2431 144.297 43.9631C144.166 43.6831 144.101 43.3611 144.101 42.9971C144.101 42.6424 144.166 42.3298 144.297 42.0591C144.437 41.7884 144.619 41.5644 144.843 41.3871C145.067 41.2004 145.328 41.0651 145.627 40.9811C145.935 40.8971 146.257 40.8598 146.593 40.8691C146.919 40.8598 147.232 40.9018 147.531 40.9951C147.839 41.0791 148.105 41.2144 148.329 41.4011C148.562 41.5784 148.744 41.8024 148.875 42.0731C149.015 42.3344 149.085 42.6424 149.085 42.9971C149.085 43.3704 149.019 43.6971 148.889 43.9771C148.758 44.2571 148.581 44.4904 148.357 44.6771C148.133 44.8544 147.867 44.9898 147.559 45.0831C147.26 45.1671 146.938 45.2091 146.593 45.2091Z" fill="#F9F9F9"/>
</svg>
