<svg width="12" height="13" viewBox="0 0 12 13" fill="none" xmlns="http://www.w3.org/2000/svg">
<path d="M8.6244 12.3379C8.23704 12.3379 7.85296 12.2694 7.47738 12.133C5.8228 11.5319 4.287 10.553 3.03595 9.30195C1.7849 8.05093 0.805953 6.51511 0.20492 4.86053C0.0117784 4.32881 -0.0452195 3.77992 0.0355666 3.22907C0.111244 2.71309 0.311111 2.21218 0.613585 1.78048C0.917394 1.34688 1.32243 0.986239 1.78488 0.737554C2.27803 0.472369 2.8163 0.337891 3.38478 0.337891C3.56159 0.337891 3.71439 0.461425 3.75145 0.634293L4.34004 3.38103C4.36668 3.50541 4.32846 3.63483 4.23853 3.72478L3.23279 4.73048C4.18156 6.6168 5.72106 8.1563 7.60739 9.10505L8.6131 8.09932C8.70305 8.0094 8.83249 7.97122 8.95685 7.99782L11.7036 8.5864C11.8765 8.62346 12 8.77626 12 8.95307C12 9.52155 11.8655 10.0598 11.6003 10.553C11.3516 11.0154 10.991 11.4205 10.5574 11.7243C10.1257 12.0267 9.62479 12.2266 9.10878 12.3023C8.94709 12.326 8.78543 12.3379 8.6244 12.3379ZM3.08517 1.10427C2.33531 1.18704 1.66976 1.58007 1.22779 2.21087C0.730791 2.92018 0.614897 3.7926 0.909824 4.60449C2.06534 7.78544 4.55247 10.2725 7.73343 11.4281C8.5453 11.723 9.41773 11.6071 10.1271 11.1101C10.7579 10.6681 11.1509 10.0026 11.2337 9.25273L8.9992 8.77392L7.94886 9.82425C7.83709 9.93602 7.66727 9.96572 7.52426 9.8985C5.29332 8.85042 3.48748 7.04458 2.43939 4.81366C2.3722 4.67063 2.40187 4.50081 2.51364 4.38906L3.56398 3.33873L3.08517 1.10427Z" fill="#F9F9F9"/>
</svg>
